<?xml version="1.0" encoding="utf-8"?>
<!-- Generator: Adobe Illustrator 21.0.2, SVG Export Plug-In . SVG Version: 6.00 Build 0)  -->
<svg version="1.1" id="Layer_1" xmlns="http://www.w3.org/2000/svg" xmlns:xlink="http://www.w3.org/1999/xlink" x="0px" y="0px"
	 viewBox="0 0 500 500" style="enable-background:new 0 0 500 500;" xml:space="preserve">
<style type="text/css">
	.st0{fill:#005DBA;}
	.st1{fill:#FFFFFF;}
</style>
<g id="ICON-NEWS">
	<g id="BACKGROUND_6_">
		<path class="st0" d="M494.8,250.6c0,135.4-109.8,245.2-245.2,245.2C114.1,495.8,4.3,386,4.3,250.6C4.3,115.1,114.1,5.3,249.6,5.3
			C385,5.3,494.8,115.1,494.8,250.6z"/>
		<path class="st1" d="M249.6,0.1C111.2,0.1-0.9,112.3-0.9,250.6C-0.9,388.9,111.2,501,249.6,501C387.9,501,500,388.9,500,250.6
			C500,112.3,387.9,0.1,249.6,0.1z M249.6,480.1C123,480.1,20,377.2,20,250.6C20,124,123,21,249.6,21c126.6,0,229.6,103,229.6,229.6
			C479.1,377.2,376.1,480.1,249.6,480.1z"/>
	</g>
	<path id="ICON_3_" class="st1" d="M325.1,228.5c0.6,3,1,5.1,1.4,7.4c0.4,2.3,0.8,4.6,1.1,6.7l0.5,3.4c2.7,21,2.2,41.2-1.4,60
		c-0.8,4-3.2,7.5-6.6,9.7c-1.6,1-3.4,1.7-5.2,2c-2.1,0.4-4.2,0.3-6.3-0.3l-5.7-1.5c-7.4-2-12-9.3-10.6-16.9
		c2.8-15.1,3.2-31.4,1-48.4l-0.4-3.1c-0.2-1.8-0.5-3.6-0.9-5.5c-0.3-1.9-0.7-3.7-1.2-6l-0.6-2.6c-3.7-16.7-9.6-31.9-17.5-45.1
		c-3.9-6.6-2.1-15.1,4.2-19.5l4.8-3.4c1.8-1.2,3.8-2.1,5.8-2.4c1.8-0.3,3.7-0.3,5.6,0.1c4,0.9,7.4,3.3,9.5,6.8
		c9.8,16.5,17.2,35.3,21.8,55.8L325.1,228.5z M255.9,241.2c-3.2-14.2-8.2-26.8-14.9-37.4c-5.9-9.3-12-15.2-16-18.6
		c-2.9-2.4-6.8-3.4-10.6-2.8c-2.3,0.4-4.5,1.5-6.3,3l-43.1,37.7l-69.7,21.8c-5.1,1.6-8.2,6.7-7.3,11.9l7.2,40.7
		c0.9,5.2,5.6,9,10.9,8.7l17.1-0.8l4.2,5.3l28,35.4c1.4,1.8,3.8,2.7,6.1,2.3l17.7-3.1c2.2-0.4,4-1.9,4.8-4c0.8-2.1,0.4-4.4-1-6.2
		l-24.8-31.3l20.7-0.9l53.4,20.7c2.2,0.9,4.6,1.1,7,0.7l0,0c3.8-0.7,7-2.9,9-6.2c2.7-4.5,6.3-12.2,8.7-22.9
		c2.7-12.2,3.1-25.8,1.3-40.2c0,0-0.4-2.6-0.4-2.6c-0.2-1.4-0.4-2.9-0.7-4.4c-0.3-1.5-0.5-3-0.9-4.5L255.9,241.2z M393.7,213.4
		l-0.7-2.9c-6.7-29.7-17.7-56.9-32.8-81c-2.1-3.4-5.6-5.8-9.5-6.6c-1.8-0.4-3.7-0.4-5.5-0.1c-2.1,0.4-4.1,1.2-5.8,2.4l-4.8,3.4
		c-6.4,4.5-8.2,13.2-4,19.8c12.9,20.6,22.4,44.1,28.1,69.8l0.6,2.8c0.8,3.8,1.3,6.3,1.7,8.9c0.5,2.7,0.9,5.3,1.3,7.8l0.5,3.7
		c3.4,26.4,2.5,51.8-2.5,75.5c-1.6,7.6,3,15.2,10.6,17.2l5.7,1.5c2.1,0.6,4.2,0.6,6.3,0.3c1.8-0.3,3.5-1,5.1-1.9
		c3.4-2.1,5.8-5.5,6.7-9.4c6-27.8,7-57.3,3.1-87.9l-0.5-3.9c-0.4-2.9-0.9-5.8-1.4-9C395.2,220.8,394.7,218,393.7,213.4z"/>
</g>
</svg>
